# xmcd CD database file
#
# Track frame offsets:
#	150
#	27448
#	54805
#	86969
#	120031
#	143719
#	174907
#	206371
#
# Disc length: 3179 seconds
#
# Revision: 0
# Processed by: cddbd v1.5.2PL0 Copyright (c) Steve Scherf et al.
# Submitted via: CDex 1.51
#
DISCID=5b0c6908
DTITLE=Mike Kocour - HIGH standards
DYEAR=2003
DGENRE=Jazz
TTITLE0=Battle Royal
TTITLE1=The Very Thought Of You
TTITLE2=The Shadow Of Your Smile
TTITLE3=I'll Remember April
TTITLE4=Let's Face The Music And Dance
TTITLE5=Star Eyes
TTITLE6=Hello Young Lovers
TTITLE7=Body And Soul
EXTD=YEAR: 2003
EXTT0=
EXTT1=
EXTT2=
EXTT3=
EXTT4=
EXTT5=
EXTT6=
EXTT7=
PLAYORDER=
